<svg width="20" height="18" viewBox="0 0 20 18" fill="none" xmlns="http://www.w3.org/2000/svg">
<path d="M4.30225 1V5.39613" stroke="#084E88" stroke-width="1.28" stroke-miterlimit="10" stroke-linecap="round" stroke-linejoin="round"/>
<path d="M15.9478 1V5.39613" stroke="#084E88" stroke-width="1.28" stroke-miterlimit="10" stroke-linecap="round" stroke-linejoin="round"/>
<path d="M17.8904 17.1191H2.35319C1.60298 17.1191 1 16.5162 1 15.7659V4.58981C1 3.8396 1.60298 3.23662 2.35319 3.23662H17.8904C18.6406 3.23662 19.2436 3.8396 19.2436 4.58981V15.7659C19.2436 16.5162 18.6406 17.1191 17.8904 17.1191Z" stroke="#084E88" stroke-width="1.39" stroke-miterlimit="10" stroke-linecap="round" stroke-linejoin="round"/>
<path d="M6.18149 9.73622C6.78169 9.73622 7.26825 9.24966 7.26825 8.64946C7.26825 8.04926 6.78169 7.5627 6.18149 7.5627C5.58129 7.5627 5.09473 8.04926 5.09473 8.64946C5.09473 9.24966 5.58129 9.73622 6.18149 9.73622Z" fill="#084E88"/>
<path d="M6.181 13.8098C6.7812 13.8098 7.26776 13.3232 7.26776 12.723C7.26776 12.1228 6.7812 11.6363 6.181 11.6363C5.5808 11.6363 5.09424 12.1228 5.09424 12.723C5.09424 13.3232 5.5808 13.8098 6.181 13.8098Z" fill="#084E88"/>
<path d="M10.1214 9.73619C10.7216 9.73619 11.2082 9.24963 11.2082 8.64943C11.2082 8.04923 10.7216 7.56267 10.1214 7.56267C9.52123 7.56267 9.03467 8.04923 9.03467 8.64943C9.03467 9.24963 9.52123 9.73619 10.1214 9.73619Z" fill="#084E88"/>
<path d="M10.1214 13.8098C10.7216 13.8098 11.2082 13.3232 11.2082 12.723C11.2082 12.1228 10.7216 11.6363 10.1214 11.6363C9.52123 11.6363 9.03467 12.1228 9.03467 12.723C9.03467 13.3232 9.52123 13.8098 10.1214 13.8098Z" fill="#084E88"/>
<path d="M14.0687 9.73619C14.6689 9.73619 15.1555 9.24963 15.1555 8.64943C15.1555 8.04923 14.6689 7.56267 14.0687 7.56267C13.4685 7.56267 12.9819 8.04923 12.9819 8.64943C12.9819 9.24963 13.4685 9.73619 14.0687 9.73619Z" fill="#084E88"/>
<path d="M14.0687 13.8098C14.6689 13.8098 15.1555 13.3232 15.1555 12.723C15.1555 12.1228 14.6689 11.6363 14.0687 11.6363C13.4685 11.6363 12.9819 12.1228 12.9819 12.723C12.9819 13.3232 13.4685 13.8098 14.0687 13.8098Z" fill="#084E88"/>
</svg>
